HIERARCHY
ROOT Hips
{
  OFFSET 0 0 0
  CHANNELS 6 Xposition Yposition Zposition Zrotation Yrotation Xrotation
  JOINT LeftThigh
  {
    OFFSET 8.409438 0 -5.917753
    CHANNELS 3 Zrotation Yrotation Xrotation
    JOINT LeftLeg
    {
      OFFSET 0 0 -42.358652
      CHANNELS 3 Zrotation Yrotation Xrotation
      JOINT LeftFoot
      {
        OFFSET 0 0 -39.357303
        CHANNELS 3 Zrotation Yrotation Xrotation
      }
    }
  }
  JOINT RightThigh
  {
    OFFSET -8.409438 0 -5.917753
    CHANNELS 3 Zrotation Yrotation Xrotation
    JOINT RightLeg
    {
      OFFSET 0 0 -42.358652
      CHANNELS 3 Zrotation Yrotation Xrotation
      JOINT RightFoot
      {
        OFFSET 0 0 -39.357303
        CHANNELS 3 Zrotation Yrotation Xrotation
      }
    }
  }
  JOINT SpineLow
  {
    OFFSET 0 0 4.719101
    CHANNELS 3 Zrotation Yrotation Xrotation
    JOINT SpineMid
    {
      OFFSET 0 0 12.899191
      CHANNELS 3 Zrotation Yrotation Xrotation
      JOINT Chest
      {
        OFFSET 0 0 12.899191
        CHANNELS 3 Zrotation Yrotation Xrotation
        JOINT LeftShoulder
        {
          OFFSET 7.550562 1.41573 9.438202
          CHANNELS 3 Zrotation Yrotation Xrotation
          JOINT LeftArm
          {
            OFFSET 9.155056 0 4.247191
            CHANNELS 3 Zrotation Yrotation Xrotation
            JOINT LeftForearm
            {
              OFFSET 0 0 25.771955
              CHANNELS 3 Zrotation Yrotation Xrotation
              JOINT LeftHand
              {
                OFFSET 0 0 25.197169
                CHANNELS 3 Zrotation Yrotation Xrotation
              }
            }
          }
        }
        JOINT RightShoulder
        {
          OFFSET -7.550562 1.41573 9.438202
          CHANNELS 3 Zrotation Yrotation Xrotation
          JOINT RightArm
          {
            OFFSET -9.155056 0 4.247191
            CHANNELS 3 Zrotation Yrotation Xrotation
            JOINT RightForearm
            {
              OFFSET 0 0 -25.771955
              CHANNELS 3 Zrotation Yrotation Xrotation
              JOINT RightHand
              {
                OFFSET 0 0 -25.197169
                CHANNELS 3 Zrotation Yrotation Xrotation
              }
            }
          }
        }
        JOINT Neck
        {
          OFFSET 0 0 15.101124
          CHANNELS 3 Zrotation Yrotation Xrotation
          JOINT Head
          {
            OFFSET 0 0 11.325843
            CHANNELS 3 Zrotation Yrotation Xrotation
            End Site
            {
              OFFSET 0 0 14.157303
            }
          }
        }
      }
    }
  }
}
MOTION
Frames: 14
Frame Time: 0.0
0.0  89.887642  0.0  87.510824  -39.076406  -168.517917  2.118906  -50.538827  -8.241422  -16.003923  9.396428  19.96695  -9.360607  4.179571  7.274475  2.037707  40.041775  -16.681903  6.871414  10.794248  15.207601  15.489845  1.63217  1.778582  0.275919  4.326794  1.084316  0.959254  11.811371  3.04371  0.959254  11.811371  3.04371  2.324229  12.909348  13.717496  -155.43959  50.027669  -157.508562  -51.916362  1.195842  78.975912  60.487997  -5.766401  13.693205  5.130437  -10.201692  14.01342  141.834362  31.602192  47.671777  -9.959523  24.729973  -80.819131  103.17001  21.755464  -17.757106  36.498605  15.945845  14.625238  26.823151  12.887617  9.96302  
0.0  89.887642  0.0  85.054784  -38.295383  -167.185881  15.329326  -49.023914  -17.873836  -25.805928  10.869431  18.809364  -10.004417  3.658256  6.923653  -0.10942  40.467331  -16.593423  6.313719  10.404629  15.226999  14.045988  1.218128  2.426199  0.322186  4.032603  0.988534  1.055672  11.007028  2.779979  1.055672  11.007028  2.779979  3.567778  14.16988  17.050916  -157.147421  49.768057  -156.038955  -51.58684  1.223399  78.815427  60.876909  -5.780823  14.063167  3.505125  -8.57939  16.547764  138.315913  31.653716  46.756373  -8.114613  22.440219  -81.543484  105.025218  20.844659  -15.426074  35.476001  15.409979  16.071938  26.052795  12.54252  11.1095  
0.0  89.887642  0.0  82.232829  -37.718919  -166.287728  18.397479  -47.826037  -22.855948  -29.410149  11.183412  19.022329  -10.97132  4.950881  8.16724  -2.46696  40.446322  -15.890229  4.568047  10.168357  15.422337  13.156298  1.778991  2.451391  0.512164  3.613517  0.97502  1.556967  9.853975  2.760936  1.556967  9.853974  2.760936  4.103597  15.056053  20.380696  -160.308574  49.194395  -155.537091  -51.226038  0.64251  78.846692  61.300558  -6.016859  14.382169  1.244807  -6.427971  19.282476  135.764237  31.568075  46.716033  -7.757323  21.007213  -82.737883  105.235306  20.209465  -13.410586  33.989546  14.92191  17.949975  24.925871  12.238883  12.584121  
0.0  89.887642  0.0  79.225834  -37.156781  -165.66417  11.832693  -48.52855  -21.077649  -27.469982  13.124568  21.316659  -9.673195  4.905752  8.359548  -5.490226  40.188224  -15.053794  2.853592  9.960353  15.404492  12.45693  2.272874  2.456234  0.6867  3.148674  1.040655  2.023249  8.574189  2.949398  2.023249  8.574189  2.949398  4.499621  15.642894  23.111242  -164.502539  48.315163  -155.920107  -50.882314  -0.320845  79.30859  61.576247  -6.353777  14.45481  -0.807156  -3.910989  21.592836  134.78144  31.378613  47.229534  -8.980218  20.128412  -83.850162  104.225524  19.621525  -11.382568  32.408254  14.698796  19.849738  23.715521  12.123822  14.056493  
0.0  89.887642  0.0  76.222156  -36.486395  -164.804459  1.149074  -49.246284  -15.568771  -22.533171  14.441186  23.136464  -8.184822  4.801945  8.589731  -9.441211  39.976512  -14.531465  1.621851  9.74037  14.758391  12.405637  2.86642  2.534272  0.722564  2.763682  1.137234  2.113396  7.517389  3.203839  2.113396  7.517389  3.203839  4.984668  15.923818  24.831632  -168.716919  47.051853  -156.839772  -50.562638  -1.395273  80.524323  61.493841  -6.735087  14.365742  -2.249424  -1.790865  22.919727  135.487353  31.068311  47.950698  -11.447535  19.393916  -84.665344  102.796275  18.741142  -9.423903  31.00345  14.729356  21.200576  22.635569  12.168247  15.095929  
0.0  89.887642  0.0  73.737298  -35.807486  -163.774854  -8.627324  -49.549675  -10.447331  -17.084429  15.811237  24.695975  -6.806379  4.726068  8.696813  -13.551045  39.696828  -14.398788  1.227896  9.487057  13.924182  13.002163  5.567682  1.413919  0.677815  2.640097  1.292212  2.000911  7.177024  3.6192  2.000911  7.177025  3.6192  5.433802  15.08141  24.955011  -172.513393  45.637986  -157.73695  -50.29515  -2.611626  82.143638  61.098796  -7.129593  14.248863  -3.06755  -1.170179  23.024426  137.230327  30.760146  48.517878  -14.641961  18.974317  -84.960963  101.716683  17.673333  -7.331449  29.764319  14.741695  21.328026  21.70648  12.138121  15.217444  
0.0  89.887642  0.0  72.165919  -35.818183  -162.095917  -15.587051  -50.718209  -7.570695  -10.900424  17.53326  26.574971  -6.058612  4.661142  8.817662  -17.250469  38.733387  -15.078506  1.779039  10.2806  11.841474  15.354793  5.270285  0.588099  0.424556  2.600659  1.362466  1.311656  7.081759  3.783214  1.311656  7.081759  3.783214  6.927616  14.218456  23.806209  -174.659309  44.348546  -158.17322  -49.843403  -3.566944  84.023908  60.502026  -7.671366  14.273956  -1.97398  -1.447539  22.081557  139.20391  30.581905  48.999856  -17.929544  19.129323  -84.925216  101.102216  16.592468  -5.169478  29.523399  15.224532  20.491815  21.518974  12.450527  14.566432  
0.0  89.887642  0.0  74.142679  -37.934804  -161.328313  -17.222024  -53.505889  -6.664315  -4.202738  19.512813  29.013743  -6.078839  4.430164  8.940126  -15.928861  36.257684  -15.30842  4.063101  10.226567  10.362394  15.834965  4.801069  2.185309  0.560705  2.459481  1.184843  1.658269  6.692886  3.306074  1.658269  6.692887  3.306074  8.045371  14.526131  22.738955  -173.96636  44.089434  -157.636629  -48.946261  -3.975681  86.046165  59.902939  -8.259084  14.058813  -0.339292  -2.132625  21.012793  141.058809  30.380115  49.599333  -20.999159  19.816215  -84.864  100.67436  15.749324  -3.150237  29.817548  15.912596  19.413958  21.726974  12.924154  13.709477  
0.0  89.887642  0.0  77.208579  -39.157945  -162.169798  -15.452663  -54.801229  -7.483734  0.338574  21.900066  31.204431  -5.717007  4.175392  9.208968  -8.934906  35.508807  -14.256326  4.687793  10.86375  11.983233  14.496345  4.26973  2.917714  0.905638  2.483291  1.138264  2.600382  6.742198  3.214393  2.600382  6.742198  3.214393  7.340361  16.41431  21.913136  -170.582129  45.259627  -156.119533  -47.835345  -4.144376  87.797602  59.416905  -8.907826  13.644909  0.393942  -2.705312  20.217544  142.816958  30.475839  50.284181  -23.664542  20.672574  -84.826869  100.342941  15.276775  -1.466714  29.862614  16.494848  18.482788  21.752797  13.316581  12.974856  
0.0  89.887642  0.0  74.406282  -38.107708  -159.855918  -14.368348  -54.138708  -10.948194  1.31898  24.056524  32.298274  -4.357866  4.032115  9.616544  -6.62532  36.543453  -12.787778  4.021178  10.186007  14.354012  11.860421  4.100886  2.453079  0.578311  2.446654  1.15948  1.703279  6.657632  3.237905  1.703279  6.657632  3.237905  6.46426  18.510426  22.899586  -166.071598  46.039856  -152.917742  -46.447813  -4.464015  89.334027  59.136549  -9.446159  12.984236  0.565386  -2.484756  20.286461  143.922255  30.660749  50.799255  -25.685333  21.498887  -84.94578  100.205631  15.100351  -0.235295  29.790961  16.989033  18.373285  21.676265  13.680134  12.862721  
0.0  89.887642  0.0  71.682336  -37.027319  -159.127763  -13.719924  -52.299884  -13.161988  1.64553  25.89326  33.624311  -2.69687  3.696627  9.979169  -5.491348  37.746959  -10.910402  1.426213  10.165136  15.383852  11.2904  3.832552  2.71334  0.381385  2.396416  1.386656  1.183386  6.525741  3.839598  1.183386  6.525741  3.839598  6.427412  18.634801  24.724793  -163.16959  45.273804  -149.494126  -44.779236  -5.031624  90.776269  59.042414  -9.972596  12.295089  0.664174  -2.156074  20.675128  143.352055  31.086946  50.818331  -28.439291  23.078513  -85.076514  99.102933  16.471326  -1.014899  29.332869  17.265881  18.382756  21.320036  13.873762  12.863901  
0.0  89.887642  0.0  69.425417  -36.346485  -158.061227  -10.085779  -52.348209  -18.290121  2.983291  29.385895  36.531466  -1.402202  3.017147  10.382565  -7.441956  39.104663  -12.072023  0.21937  9.076747  16.687753  11.750942  3.914367  3.036693  0.36406  2.330597  1.563036  1.148878  6.343605  4.319719  1.148878  6.343606  4.319719  6.836139  17.385123  25.442912  -163.082717  44.186179  -147.844578  -43.041841  -5.574839  92.332404  59.064156  -10.327527  11.673801  0.564387  -1.973187  20.919605  141.038372  31.959086  50.352059  -28.56506  23.356206  -86.299278  99.133022  16.571252  -0.830213  28.310336  17.450585  18.184779  20.553816  13.969985  12.731937  
0.0  89.887642  0.0  67.688173  -35.968536  -156.239907  -1.662755  -52.092227  -26.590724  3.914372  32.76965  39.979858  -0.983062  2.220739  10.722833  -9.839138  39.134115  -13.453604  -0.641882  9.00899  16.939236  12.704544  4.033926  3.155719  0.422132  2.259635  1.575134  1.304252  6.145664  4.356454  1.304252  6.145664  4.356454  7.585404  16.139032  25.697995  -163.539026  43.417989  -146.518986  -41.359611  -6.023267  93.920969  59.034102  -10.521507  11.24213  0.59032  -2.237775  21.17684  138.018384  32.982129  49.704376  -27.732098  23.036579  -87.384674  98.925822  16.918049  -0.647043  27.197807  17.516568  17.888978  19.729684  13.970456  12.537573  
0.0  89.887642  0.0  66.502475  -35.923965  -154.394511  8.851328  -50.259844  -35.355983  4.263002  35.531132  43.753877  -1.20213  1.45392  10.858609  -12.689317  37.730782  -14.987857  0.027889  9.720552  16.836647  12.990497  4.189178  2.88897  0.487229  2.174278  1.53805  1.473348  5.909045  4.258292  1.473348  5.909045  4.258292  8.79635  15.364799  25.565513  -163.677027  42.848792  -144.891801  -39.6262  -6.488238  95.512497  58.874498  -10.606305  10.869754  1.116409  -2.609123  21.376538  135.202133  34.165168  49.096991  -26.436371  22.139217  -88.040084  98.370811  17.370927  -0.229073  26.356929  17.602501  17.564359  19.107917  13.994219  12.313472  
